<svg xmlns="http://www.w3.org/2000/svg" width="760" height="360" viewBox="0 0 760 360" role="img" aria-label="brainrot - a self-audit toolkit for Claude">
<title>brainrot</title>
<rect x="0.5" y="0.5" width="759" height="359" rx="12" fill="#080b09" stroke="#1e9c39" stroke-opacity="0.4"></rect>
<path d="M0.5 12.5a12 12 0 0 1 12-12h735a12 12 0 0 1 12 12V38H0.5z" fill="#101512"></path>
<line x1="0" y1="38" x2="760" y2="38" stroke="#1e9c39" stroke-opacity="0.28"></line>
<circle cx="22" cy="19.5" r="5" fill="#333b34"></circle><circle cx="40" cy="19.5" r="5" fill="#333b34"></circle><circle cx="58" cy="19.5" r="5" fill="#333b34"></circle>
<text x="80" y="24" fill="#5d6b61" font-family="ui-monospace,SFMono-Regular,Menlo,Consolas,&#39;DejaVu Sans Mono&#39;,monospace" font-size="12.5">~/brainrot $ ./scripts/banner.sh</text>
<g shape-rendering="crispEdges"><rect x="137" y="100" width="17" height="17" fill="#c5f24a"></rect><rect x="188" y="100" width="17" height="17" fill="#c5f24a"></rect><rect x="120" y="117" width="17" height="17" fill="#c5f24a"></rect><rect x="137" y="117" width="17" height="17" fill="#c5f24a"></rect><rect x="154" y="117" width="17" height="17" fill="#c5f24a"></rect><rect x="188" y="117" width="17" height="17" fill="#c5f24a"></rect><rect x="205" y="117" width="17" height="17" fill="#c5f24a"></rect><rect x="86" y="134" width="17" height="17" fill="#35d94f"></rect><rect x="103" y="134" width="17" height="17" fill="#35d94f"></rect><rect x="120" y="134" width="17" height="17" fill="#35d94f"></rect><rect x="137" y="134" width="17" height="17" fill="#35d94f"></rect><rect x="154" y="134" width="17" height="17" fill="#35d94f"></rect><rect x="171" y="134" width="17" height="17" fill="#35d94f"></rect><rect x="188" y="134" width="17" height="17" fill="#35d94f"></rect><rect x="205" y="134" width="17" height="17" fill="#35d94f"></rect><rect x="222" y="134" width="17" height="17" fill="#35d94f"></rect><rect x="239" y="134" width="17" height="17" fill="#35d94f"></rect><rect x="256" y="134" width="17" height="17" fill="#35d94f"></rect><rect x="273" y="134" width="17" height="17" fill="#1e9c39"></rect><rect x="86" y="151" width="17" height="17" fill="#35d94f"></rect><rect x="103" y="151" width="17" height="17" fill="#1e9c39"></rect><rect x="120" y="151" width="17" height="17" fill="#1e9c39"></rect><rect x="137" y="151" width="17" height="17" fill="#35d94f"></rect><rect x="154" y="151" width="17" height="17" fill="#35d94f"></rect><rect x="171" y="151" width="17" height="17" fill="#35d94f"></rect><rect x="188" y="151" width="17" height="17" fill="#1e9c39"></rect><rect x="205" y="151" width="17" height="17" fill="#1e9c39"></rect><rect x="222" y="151" width="17" height="17" fill="#35d94f"></rect><rect x="239" y="151" width="17" height="17" fill="#1e9c39"></rect><rect x="256" y="151" width="17" height="17" fill="#35d94f"></rect><rect x="273" y="151" width="17" height="17" fill="#1e9c39"></rect><rect x="86" y="168" width="17" height="17" fill="#35d94f"></rect><rect x="103" y="168" width="17" height="17" fill="#080b09"></rect><rect x="120" y="168" width="17" height="17" fill="#080b09"></rect><rect x="137" y="168" width="17" height="17" fill="#35d94f"></rect><rect x="154" y="168" width="17" height="17" fill="#35d94f"></rect><rect x="171" y="168" width="17" height="17" fill="#35d94f"></rect><rect x="188" y="168" width="17" height="17" fill="#35d94f"></rect><rect x="205" y="168" width="17" height="17" fill="#35d94f"></rect><rect x="222" y="168" width="17" height="17" fill="#35d94f"></rect><rect x="239" y="168" width="17" height="17" fill="#080b09"></rect><rect x="256" y="168" width="17" height="17" fill="#35d94f"></rect><rect x="273" y="168" width="17" height="17" fill="#1e9c39"></rect><rect x="86" y="185" width="17" height="17" fill="#35d94f"></rect><rect x="103" y="185" width="17" height="17" fill="#080b09"></rect><rect x="120" y="185" width="17" height="17" fill="#080b09"></rect><rect x="137" y="185" width="17" height="17" fill="#35d94f"></rect><rect x="154" y="185" width="17" height="17" fill="#35d94f"></rect><rect x="171" y="185" width="17" height="17" fill="#35d94f"></rect><rect x="188" y="185" width="17" height="17" fill="#35d94f"></rect><rect x="205" y="185" width="17" height="17" fill="#35d94f"></rect><rect x="222" y="185" width="17" height="17" fill="#35d94f"></rect><rect x="239" y="185" width="17" height="17" fill="#080b09"></rect><rect x="256" y="185" width="17" height="17" fill="#35d94f"></rect><rect x="273" y="185" width="17" height="17" fill="#1e9c39"></rect><rect x="52" y="202" width="17" height="17" fill="#35d94f"></rect><rect x="69" y="202" width="17" height="17" fill="#35d94f"></rect><rect x="86" y="202" width="17" height="17" fill="#35d94f"></rect><rect x="103" y="202" width="17" height="17" fill="#35d94f"></rect><rect x="120" y="202" width="17" height="17" fill="#35d94f"></rect><rect x="137" y="202" width="17" height="17" fill="#35d94f"></rect><rect x="154" y="202" width="17" height="17" fill="#35d94f"></rect><rect x="171" y="202" width="17" height="17" fill="#35d94f"></rect><rect x="188" y="202" width="17" height="17" fill="#35d94f"></rect><rect x="205" y="202" width="17" height="17" fill="#35d94f"></rect><rect x="222" y="202" width="17" height="17" fill="#35d94f"></rect><rect x="239" y="202" width="17" height="17" fill="#35d94f"></rect><rect x="256" y="202" width="17" height="17" fill="#35d94f"></rect><rect x="273" y="202" width="17" height="17" fill="#1e9c39"></rect><rect x="52" y="219" width="17" height="17" fill="#1e9c39"></rect><rect x="69" y="219" width="17" height="17" fill="#1e9c39"></rect><rect x="86" y="219" width="17" height="17" fill="#35d94f"></rect><rect x="103" y="219" width="17" height="17" fill="#35d94f"></rect><rect x="120" y="219" width="17" height="17" fill="#35d94f"></rect><rect x="137" y="219" width="17" height="17" fill="#35d94f"></rect><rect x="154" y="219" width="17" height="17" fill="#35d94f"></rect><rect x="171" y="219" width="17" height="17" fill="#35d94f"></rect><rect x="188" y="219" width="17" height="17" fill="#35d94f"></rect><rect x="205" y="219" width="17" height="17" fill="#35d94f"></rect><rect x="222" y="219" width="17" height="17" fill="#35d94f"></rect><rect x="239" y="219" width="17" height="17" fill="#35d94f"></rect><rect x="256" y="219" width="17" height="17" fill="#35d94f"></rect><rect x="273" y="219" width="17" height="17" fill="#35d94f"></rect><rect x="290" y="219" width="17" height="17" fill="#35d94f"></rect><rect x="307" y="219" width="17" height="17" fill="#1e9c39"></rect><rect x="86" y="236" width="17" height="17" fill="#35d94f"></rect><rect x="103" y="236" width="17" height="17" fill="#1e9c39"></rect><rect x="120" y="236" width="17" height="17" fill="#35d94f"></rect><rect x="137" y="236" width="17" height="17" fill="#1e9c39"></rect><rect x="154" y="236" width="17" height="17" fill="#35d94f"></rect><rect x="171" y="236" width="17" height="17" fill="#1e9c39"></rect><rect x="188" y="236" width="17" height="17" fill="#35d94f"></rect><rect x="205" y="236" width="17" height="17" fill="#1e9c39"></rect><rect x="222" y="236" width="17" height="17" fill="#35d94f"></rect><rect x="239" y="236" width="17" height="17" fill="#35d94f"></rect><rect x="256" y="236" width="17" height="17" fill="#35d94f"></rect><rect x="273" y="236" width="17" height="17" fill="#35d94f"></rect><rect x="290" y="236" width="17" height="17" fill="#1e9c39"></rect><rect x="307" y="236" width="17" height="17" fill="#1e9c39"></rect><rect x="86" y="253" width="17" height="17" fill="#35d94f"></rect><rect x="103" y="253" width="17" height="17" fill="#080b09"></rect><rect x="120" y="253" width="17" height="17" fill="#35d94f"></rect><rect x="137" y="253" width="17" height="17" fill="#080b09"></rect><rect x="154" y="253" width="17" height="17" fill="#35d94f"></rect><rect x="171" y="253" width="17" height="17" fill="#080b09"></rect><rect x="188" y="253" width="17" height="17" fill="#35d94f"></rect><rect x="205" y="253" width="17" height="17" fill="#080b09"></rect><rect x="222" y="253" width="17" height="17" fill="#35d94f"></rect><rect x="239" y="253" width="17" height="17" fill="#35d94f"></rect><rect x="256" y="253" width="17" height="17" fill="#35d94f"></rect><rect x="273" y="253" width="17" height="17" fill="#1e9c39"></rect><rect x="86" y="270" width="17" height="17" fill="#35d94f"></rect><rect x="103" y="270" width="17" height="17" fill="#35d94f"></rect><rect x="120" y="270" width="17" height="17" fill="#1e9c39"></rect><rect x="137" y="270" width="17" height="17" fill="#1e9c39"></rect><rect x="154" y="270" width="17" height="17" fill="#35d94f"></rect><rect x="171" y="270" width="17" height="17" fill="#35d94f"></rect><rect x="188" y="270" width="17" height="17" fill="#1e9c39"></rect><rect x="205" y="270" width="17" height="17" fill="#1e9c39"></rect><rect x="222" y="270" width="17" height="17" fill="#1e9c39"></rect><rect x="239" y="270" width="17" height="17" fill="#35d94f"></rect><rect x="256" y="270" width="17" height="17" fill="#35d94f"></rect><rect x="273" y="270" width="17" height="17" fill="#1e9c39"></rect><rect x="86" y="287" width="17" height="17" fill="#35d94f"></rect><rect x="103" y="287" width="17" height="17" fill="#1e9c39"></rect><rect x="154" y="287" width="17" height="17" fill="#35d94f"></rect><rect x="171" y="287" width="17" height="17" fill="#1e9c39"></rect><rect x="239" y="287" width="17" height="17" fill="#35d94f"></rect><rect x="256" y="287" width="17" height="17" fill="#1e9c39"></rect><rect x="86" y="304" width="17" height="17" fill="#35d94f"></rect><rect x="103" y="304" width="17" height="17" fill="#1e9c39"></rect><rect x="154" y="304" width="17" height="17" fill="#1e9c39"></rect><rect x="171" y="304" width="17" height="17" fill="#1e9c39"></rect><rect x="239" y="304" width="17" height="17" fill="#35d94f"></rect><rect x="256" y="304" width="17" height="17" fill="#1e9c39"></rect><rect x="86" y="321" width="17" height="17" fill="#35d94f"></rect><rect x="103" y="321" width="17" height="17" fill="#1e9c39"></rect><rect x="239" y="321" width="17" height="17" fill="#1e9c39"></rect><rect x="256" y="321" width="17" height="17" fill="#1e9c39"></rect><rect x="86" y="338" width="17" height="17" fill="#1e9c39"></rect><rect x="103" y="338" width="17" height="17" fill="#1e9c39"></rect></g>
<text x="380" y="150" fill="#e8ffe9" font-family="ui-monospace,SFMono-Regular,Menlo,Consolas,&#39;DejaVu Sans Mono&#39;,monospace" font-size="52" font-weight="700" letter-spacing="-2">brainrot</text>
<text x="380" y="182" fill="#35d94f" font-family="ui-monospace,SFMono-Regular,Menlo,Consolas,&#39;DejaVu Sans Mono&#39;,monospace" font-size="14.5">a self-audit toolkit for Claude</text>
<line x1="380" y1="204" x2="716" y2="204" stroke="#1e9c39" stroke-opacity="0.3"></line>
<text x="380" y="234" fill="#8fa094" font-family="ui-monospace,SFMono-Regular,Menlo,Consolas,&#39;DejaVu Sans Mono&#39;,monospace" font-size="13.5"><tspan fill="#35d94f">-</tspan> 10 skills that mine your own chat history</text>
<text x="380" y="258" fill="#8fa094" font-family="ui-monospace,SFMono-Regular,Menlo,Consolas,&#39;DejaVu Sans Mono&#39;,monospace" font-size="13.5"><tspan fill="#35d94f">-</tspan> an arbitration step that makes rules compete</text>
<text x="380" y="282" fill="#8fa094" font-family="ui-monospace,SFMono-Regular,Menlo,Consolas,&#39;DejaVu Sans Mono&#39;,monospace" font-size="13.5"><tspan fill="#35d94f">-</tspan> read-only until you approve the write</text>
<text x="380" y="320" fill="#4d5a51" font-family="ui-monospace,SFMono-Regular,Menlo,Consolas,&#39;DejaVu Sans Mono&#39;,monospace" font-size="12.5">MIT  ·  Claude Code plugin  ·  claude.ai skills</text>
</svg>