<svg xmlns="http://www.w3.org/2000/svg" width="136" height="128" viewBox="0 0 136 128" role="img" aria-label="brainrot mascot: a blocky green zombie with a cracked-open skull">
<title>brainrot mascot</title>
<desc>An original pixel creature: cracked skull with spore-green brain shoots, mismatched eyes, a stitched mouth, and three uneven legs.</desc>
<g shape-rendering="crispEdges"><rect x="44" y="4" width="8" height="8" fill="#c5f24a"></rect><rect x="68" y="4" width="8" height="8" fill="#c5f24a"></rect><rect x="36" y="12" width="8" height="8" fill="#c5f24a"></rect><rect x="44" y="12" width="8" height="8" fill="#c5f24a"></rect><rect x="52" y="12" width="8" height="8" fill="#c5f24a"></rect><rect x="68" y="12" width="8" height="8" fill="#c5f24a"></rect><rect x="76" y="12" width="8" height="8" fill="#c5f24a"></rect><rect x="20" y="20" width="8" height="8" fill="#35d94f"></rect><rect x="28" y="20" width="8" height="8" fill="#35d94f"></rect><rect x="36" y="20" width="8" height="8" fill="#35d94f"></rect><rect x="44" y="20" width="8" height="8" fill="#35d94f"></rect><rect x="52" y="20" width="8" height="8" fill="#35d94f"></rect><rect x="60" y="20" width="8" height="8" fill="#35d94f"></rect><rect x="68" y="20" width="8" height="8" fill="#35d94f"></rect><rect x="76" y="20" width="8" height="8" fill="#35d94f"></rect><rect x="84" y="20" width="8" height="8" fill="#35d94f"></rect><rect x="92" y="20" width="8" height="8" fill="#35d94f"></rect><rect x="100" y="20" width="8" height="8" fill="#35d94f"></rect><rect x="108" y="20" width="8" height="8" fill="#1e9c39"></rect><rect x="20" y="28" width="8" height="8" fill="#35d94f"></rect><rect x="28" y="28" width="8" height="8" fill="#1e9c39"></rect><rect x="36" y="28" width="8" height="8" fill="#1e9c39"></rect><rect x="44" y="28" width="8" height="8" fill="#35d94f"></rect><rect x="52" y="28" width="8" height="8" fill="#35d94f"></rect><rect x="60" y="28" width="8" height="8" fill="#35d94f"></rect><rect x="68" y="28" width="8" height="8" fill="#1e9c39"></rect><rect x="76" y="28" width="8" height="8" fill="#1e9c39"></rect><rect x="84" y="28" width="8" height="8" fill="#35d94f"></rect><rect x="92" y="28" width="8" height="8" fill="#1e9c39"></rect><rect x="100" y="28" width="8" height="8" fill="#35d94f"></rect><rect x="108" y="28" width="8" height="8" fill="#1e9c39"></rect><rect x="20" y="36" width="8" height="8" fill="#35d94f"></rect><rect x="28" y="36" width="8" height="8" fill="#080b09"></rect><rect x="36" y="36" width="8" height="8" fill="#080b09"></rect><rect x="44" y="36" width="8" height="8" fill="#35d94f"></rect><rect x="52" y="36" width="8" height="8" fill="#35d94f"></rect><rect x="60" y="36" width="8" height="8" fill="#35d94f"></rect><rect x="68" y="36" width="8" height="8" fill="#35d94f"></rect><rect x="76" y="36" width="8" height="8" fill="#35d94f"></rect><rect x="84" y="36" width="8" height="8" fill="#35d94f"></rect><rect x="92" y="36" width="8" height="8" fill="#080b09"></rect><rect x="100" y="36" width="8" height="8" fill="#35d94f"></rect><rect x="108" y="36" width="8" height="8" fill="#1e9c39"></rect><rect x="20" y="44" width="8" height="8" fill="#35d94f"></rect><rect x="28" y="44" width="8" height="8" fill="#080b09"></rect><rect x="36" y="44" width="8" height="8" fill="#080b09"></rect><rect x="44" y="44" width="8" height="8" fill="#35d94f"></rect><rect x="52" y="44" width="8" height="8" fill="#35d94f"></rect><rect x="60" y="44" width="8" height="8" fill="#35d94f"></rect><rect x="68" y="44" width="8" height="8" fill="#35d94f"></rect><rect x="76" y="44" width="8" height="8" fill="#35d94f"></rect><rect x="84" y="44" width="8" height="8" fill="#35d94f"></rect><rect x="92" y="44" width="8" height="8" fill="#080b09"></rect><rect x="100" y="44" width="8" height="8" fill="#35d94f"></rect><rect x="108" y="44" width="8" height="8" fill="#1e9c39"></rect><rect x="4" y="52" width="8" height="8" fill="#35d94f"></rect><rect x="12" y="52" width="8" height="8" fill="#35d94f"></rect><rect x="20" y="52" width="8" height="8" fill="#35d94f"></rect><rect x="28" y="52" width="8" height="8" fill="#35d94f"></rect><rect x="36" y="52" width="8" height="8" fill="#35d94f"></rect><rect x="44" y="52" width="8" height="8" fill="#35d94f"></rect><rect x="52" y="52" width="8" height="8" fill="#35d94f"></rect><rect x="60" y="52" width="8" height="8" fill="#35d94f"></rect><rect x="68" y="52" width="8" height="8" fill="#35d94f"></rect><rect x="76" y="52" width="8" height="8" fill="#35d94f"></rect><rect x="84" y="52" width="8" height="8" fill="#35d94f"></rect><rect x="92" y="52" width="8" height="8" fill="#35d94f"></rect><rect x="100" y="52" width="8" height="8" fill="#35d94f"></rect><rect x="108" y="52" width="8" height="8" fill="#1e9c39"></rect><rect x="4" y="60" width="8" height="8" fill="#1e9c39"></rect><rect x="12" y="60" width="8" height="8" fill="#1e9c39"></rect><rect x="20" y="60" width="8" height="8" fill="#35d94f"></rect><rect x="28" y="60" width="8" height="8" fill="#35d94f"></rect><rect x="36" y="60" width="8" height="8" fill="#35d94f"></rect><rect x="44" y="60" width="8" height="8" fill="#35d94f"></rect><rect x="52" y="60" width="8" height="8" fill="#35d94f"></rect><rect x="60" y="60" width="8" height="8" fill="#35d94f"></rect><rect x="68" y="60" width="8" height="8" fill="#35d94f"></rect><rect x="76" y="60" width="8" height="8" fill="#35d94f"></rect><rect x="84" y="60" width="8" height="8" fill="#35d94f"></rect><rect x="92" y="60" width="8" height="8" fill="#35d94f"></rect><rect x="100" y="60" width="8" height="8" fill="#35d94f"></rect><rect x="108" y="60" width="8" height="8" fill="#35d94f"></rect><rect x="116" y="60" width="8" height="8" fill="#35d94f"></rect><rect x="124" y="60" width="8" height="8" fill="#1e9c39"></rect><rect x="20" y="68" width="8" height="8" fill="#35d94f"></rect><rect x="28" y="68" width="8" height="8" fill="#1e9c39"></rect><rect x="36" y="68" width="8" height="8" fill="#35d94f"></rect><rect x="44" y="68" width="8" height="8" fill="#1e9c39"></rect><rect x="52" y="68" width="8" height="8" fill="#35d94f"></rect><rect x="60" y="68" width="8" height="8" fill="#1e9c39"></rect><rect x="68" y="68" width="8" height="8" fill="#35d94f"></rect><rect x="76" y="68" width="8" height="8" fill="#1e9c39"></rect><rect x="84" y="68" width="8" height="8" fill="#35d94f"></rect><rect x="92" y="68" width="8" height="8" fill="#35d94f"></rect><rect x="100" y="68" width="8" height="8" fill="#35d94f"></rect><rect x="108" y="68" width="8" height="8" fill="#35d94f"></rect><rect x="116" y="68" width="8" height="8" fill="#1e9c39"></rect><rect x="124" y="68" width="8" height="8" fill="#1e9c39"></rect><rect x="20" y="76" width="8" height="8" fill="#35d94f"></rect><rect x="28" y="76" width="8" height="8" fill="#080b09"></rect><rect x="36" y="76" width="8" height="8" fill="#35d94f"></rect><rect x="44" y="76" width="8" height="8" fill="#080b09"></rect><rect x="52" y="76" width="8" height="8" fill="#35d94f"></rect><rect x="60" y="76" width="8" height="8" fill="#080b09"></rect><rect x="68" y="76" width="8" height="8" fill="#35d94f"></rect><rect x="76" y="76" width="8" height="8" fill="#080b09"></rect><rect x="84" y="76" width="8" height="8" fill="#35d94f"></rect><rect x="92" y="76" width="8" height="8" fill="#35d94f"></rect><rect x="100" y="76" width="8" height="8" fill="#35d94f"></rect><rect x="108" y="76" width="8" height="8" fill="#1e9c39"></rect><rect x="20" y="84" width="8" height="8" fill="#35d94f"></rect><rect x="28" y="84" width="8" height="8" fill="#35d94f"></rect><rect x="36" y="84" width="8" height="8" fill="#1e9c39"></rect><rect x="44" y="84" width="8" height="8" fill="#1e9c39"></rect><rect x="52" y="84" width="8" height="8" fill="#35d94f"></rect><rect x="60" y="84" width="8" height="8" fill="#35d94f"></rect><rect x="68" y="84" width="8" height="8" fill="#1e9c39"></rect><rect x="76" y="84" width="8" height="8" fill="#1e9c39"></rect><rect x="84" y="84" width="8" height="8" fill="#1e9c39"></rect><rect x="92" y="84" width="8" height="8" fill="#35d94f"></rect><rect x="100" y="84" width="8" height="8" fill="#35d94f"></rect><rect x="108" y="84" width="8" height="8" fill="#1e9c39"></rect><rect x="20" y="92" width="8" height="8" fill="#35d94f"></rect><rect x="28" y="92" width="8" height="8" fill="#1e9c39"></rect><rect x="52" y="92" width="8" height="8" fill="#35d94f"></rect><rect x="60" y="92" width="8" height="8" fill="#1e9c39"></rect><rect x="92" y="92" width="8" height="8" fill="#35d94f"></rect><rect x="100" y="92" width="8" height="8" fill="#1e9c39"></rect><rect x="20" y="100" width="8" height="8" fill="#35d94f"></rect><rect x="28" y="100" width="8" height="8" fill="#1e9c39"></rect><rect x="52" y="100" width="8" height="8" fill="#1e9c39"></rect><rect x="60" y="100" width="8" height="8" fill="#1e9c39"></rect><rect x="92" y="100" width="8" height="8" fill="#35d94f"></rect><rect x="100" y="100" width="8" height="8" fill="#1e9c39"></rect><rect x="20" y="108" width="8" height="8" fill="#35d94f"></rect><rect x="28" y="108" width="8" height="8" fill="#1e9c39"></rect><rect x="92" y="108" width="8" height="8" fill="#1e9c39"></rect><rect x="100" y="108" width="8" height="8" fill="#1e9c39"></rect><rect x="20" y="116" width="8" height="8" fill="#1e9c39"></rect><rect x="28" y="116" width="8" height="8" fill="#1e9c39"></rect></g>
</svg>